<?xml version="1.0" encoding="utf-8"?>
<!-- Svg Vector Icons : http://www.onlinewebfonts.com/icon -->
<!DOCTYPE svg PUBLIC "-//W3C//DTD SVG 1.1//EN" "http://www.w3.org/Graphics/SVG/1.1/DTD/svg11.dtd">
<svg version="1.1" xmlns="http://www.w3.org/2000/svg" xmlns:xlink="http://www.w3.org/1999/xlink" x="0px" y="0px" viewBox="0 0 1000 1000" enable-background="new 0 0 1000 1000" xml:space="preserve">
<metadata> Svg Vector Icons : http://www.onlinewebfonts.com/icon </metadata>
<g><path d="M903.1,334.8c-38.3-9.8-128.3-9.7-259.9-13.1c6.3-28,7.7-53.3,7.7-98.2c0-107.2-80-201.6-150.9-201.6c-50,0-91.2,39.9-91.9,89c-0.6,60.2-19.7,164.2-122.5,216.8c-7.5,3.9-29.1,14.2-32.2,15.6l1.6,1.3c-16.1-13.6-38.4-23.9-61.2-23.9h-91.9c-50.6,0-91.9,40.2-91.9,89.7v478.2c0,49.4,41.2,89.7,91.9,89.7h91.9c36.4,0,66.9-21.4,81.7-51.6c0.4,0.1,1.1,0.3,1.5,0.5c2.1,0.5,4.4,1.1,7.4,1.8c0.5,0.1,0.8,0.1,1.3,0.3c17.6,4.3,51.6,12.2,124.2,28.6c15.6,3.4,97.7,20.5,182.9,20.5h167.4c51,0,87.8-19.1,109.7-57.6c0.4-0.6,7.4-14,13.2-32.2c4.4-13.7,5.9-33,0.7-52.6c32.8-22.1,43.5-55.4,50.3-77.1c11.5-35.5,8.1-62.4,0-81.5c18.5-17,34.3-43,41-82.6c4.1-24.6-0.3-49.9-12-70.9c17.3-19,25.3-42.9,26.2-65l0.4-6.3c0.2-3.9,0.5-6.3,0.5-15C989.9,399.6,963.1,351.5,903.1,334.8z M224.4,888.5c0,16.5-13.7,29.9-30.6,29.9h-91.9c-16.9,0-30.7-13.4-30.7-29.9V410.4c0-16.5,13.7-29.9,30.7-29.9h91.9c17,0,30.6,13.4,30.6,29.9V888.5z M928,456.2c-0.7,14.8-7,43.8-60.5,43.8c-46,0-61.3,0-61.3,0c-8.5,0-15.3,6.7-15.3,14.9c0,8.3,6.8,15,15.3,15c0,0,13.5,0,59.4,0c45.9,0,51.9,37.2,49,55.1c-3.7,22.3-14.4,64.4-66.2,64.4c-51.7,0-72.8,0-72.8,0c-8.5,0-15.3,6.7-15.3,15c0,8.2,6.8,14.9,15.3,14.9c0,0,36.3,0,60.3,0c51.6,0,47.1,38.4,39.7,61.4c-9.7,30.2-15.7,58-80.8,58c-22,0-49.9,0-49.9,0c-8.5,0-15.3,6.7-15.3,14.9c0,8.3,6.8,14.9,15.3,14.9c0,0,21.2,0,48,0c33.5,0,35,31,31.6,42.1c-3.8,12.1-8.3,21.1-8.5,21.5c-9.3,16.4-24.2,26.1-55.7,26.1H592.7c-84.1,0-167.6-18.5-169.7-19.1c-127.2-28.6-133.9-30.8-141.9-33.1c0,0-25.9-4.3-25.9-26.3L255,427.2c0-14.1,9.1-26.7,24.3-31.1c1.9-0.7,4.5-1.5,6.3-2.3c139.9-56.5,182.5-180.5,183.8-282.3c0.1-14.3,11.4-29.9,30.5-29.9c32.4,0,89.6,63.4,89.6,141.9c0,70.9-2.9,83.1-28.4,157c306.2,0,304,4.3,331.1,11.2c33.5,9.3,36.4,36.5,36.4,45.8C928.7,447.7,928.3,446.2,928,456.2z M147.9,798.8c-25.4,0-45.9,20-45.9,44.8c0,24.8,20.6,44.9,45.9,44.9c25.3,0,45.9-20.1,45.9-44.9C193.8,818.8,173.2,798.8,147.9,798.8z M147.9,858.6c-8.5,0-15.4-6.7-15.4-15c0-8.1,6.9-14.9,15.4-14.9c8.4,0,15.3,6.8,15.3,14.9C163.2,851.9,156.3,858.6,147.9,858.6z"/></g>
</svg>