<?xml version="1.0" standalone="no"?>
<!DOCTYPE svg PUBLIC "-//W3C//DTD SVG 20010904//EN"
 "http://www.w3.org/TR/2001/REC-SVG-20010904/DTD/svg10.dtd">
<svg version="1.0" xmlns="http://www.w3.org/2000/svg"
 width="225.000000pt" height="225.000000pt" viewBox="0 0 225.000000 225.000000"
 preserveAspectRatio="xMidYMid meet">

<g transform="translate(0.000000,225.000000) scale(0.100000,-0.100000)"
fill="#000000" stroke="none">
<path d="M985 2240 c-238 -37 -431 -160 -543 -345 -45 -75 -59 -120 -43 -139
8 -9 23 -16 36 -16 18 0 30 15 60 78 45 91 148 200 237 251 277 157 642 117
870 -95 52 -49 56 -50 83 -31 31 23 11 61 -63 123 -82 67 -200 127 -304 154
-93 23 -250 32 -333 20z"/>
<path d="M1956 1925 c-21 -8 -60 -31 -87 -50 -27 -19 -52 -35 -57 -35 -4 0
-12 10 -17 22 -14 32 -42 34 -72 6 -66 -61 -257 -337 -344 -496 -35 -65 -34
-93 5 -100 25 -5 41 12 85 91 48 88 145 237 212 325 l49 65 0 -55 c0 -80 -27
-226 -67 -363 -20 -66 -40 -137 -46 -158 -9 -31 -8 -40 5 -53 22 -22 53 -10
68 26 16 38 137 153 247 235 87 63 189 122 199 113 15 -16 -142 -327 -248
-490 -38 -59 -68 -115 -66 -124 4 -23 31 -39 52 -31 42 16 254 391 329 582 60
151 58 170 -13 167 -33 -2 -41 1 -37 13 15 36 19 166 8 213 -23 94 -107 134
-205 97z m108 -80 c31 -31 32 -101 4 -232 -11 -51 -13 -54 -86 -99 -41 -26
-107 -73 -148 -105 -41 -33 -75 -59 -77 -59 -2 0 7 46 20 103 13 56 26 141 29
189 l7 86 45 38 c56 47 140 94 169 94 12 0 28 -7 37 -15z"/>
<path d="M1965 1774 c-20 -20 -16 -53 8 -68 24 -15 51 4 55 39 5 42 -32 59
-63 29z"/>
<path d="M1857 1702 c-20 -22 -22 -43 -5 -60 19 -19 45 -14 62 10 20 28 20 33
0 52 -20 21 -37 20 -57 -2z"/>
<path d="M1948 1634 c-20 -43 22 -83 57 -54 20 17 19 66 -1 74 -29 11 -44 6
-56 -20z"/>
<path d="M1835 1556 c-13 -19 -14 -29 -5 -45 16 -30 57 -28 72 5 24 52 -36 88
-67 40z"/>
<path d="M894 1681 c-59 -25 -83 -119 -49 -185 24 -45 18 -66 -30 -108 -27
-24 -49 -53 -55 -76 -7 -23 -10 -133 -8 -296 3 -234 5 -260 21 -270 12 -8 22
-8 35 0 15 10 18 38 22 275 5 290 8 301 65 325 38 16 55 40 55 78 0 26 0 26
90 26 l90 0 0 -32 c0 -40 7 -51 45 -71 17 -9 40 -22 53 -28 28 -15 55 -2 60
28 3 20 -48 73 -69 73 -14 0 -10 43 6 64 10 13 15 43 15 82 0 52 -4 68 -24 91
-24 28 -25 28 -163 30 -76 2 -148 -1 -159 -6z m266 -116 l0 -36 -122 3 -123 3
-3 33 -3 32 125 0 126 0 0 -35z"/>
<path d="M259 1647 c-19 -12 -44 -42 -56 -67 -20 -38 -29 -46 -67 -55 -64 -16
-95 -41 -118 -92 -15 -34 -18 -56 -13 -90 13 -89 112 -157 193 -133 30 8 34 6
68 -36 l37 -45 -23 -24 c-21 -22 -22 -31 -17 -102 7 -99 28 -153 61 -153 41 0
49 22 32 81 -32 106 -33 104 122 227 105 85 146 111 172 114 28 2 36 8 38 26
2 13 -1 29 -7 36 -19 22 -71 28 -97 11 -33 -21 -37 -20 -73 25 l-32 41 17 45
c15 40 16 53 5 93 -21 79 -76 121 -159 121 -34 0 -59 -7 -83 -23z m126 -63
c24 -9 47 -61 39 -87 -4 -12 -15 -33 -25 -46 -11 -13 -19 -29 -19 -36 0 -7 23
-41 50 -75 28 -34 50 -65 50 -69 0 -3 -25 -26 -56 -50 l-56 -44 -27 34 c-14
19 -40 50 -58 69 -30 33 -33 34 -65 22 -78 -28 -132 -2 -132 63 0 29 7 43 28
61 31 27 46 29 92 12 44 -15 68 3 61 46 -5 37 8 76 30 94 18 13 61 16 88 6z"/>
<path d="M907 1263 c-12 -11 -8 -118 5 -131 18 -18 46 -14 58 7 14 27 13 104
-2 119 -13 13 -50 16 -61 5z"/>
<path d="M1203 1219 c-50 -25 -84 -63 -119 -130 -52 -103 -70 -252 -39 -325
12 -30 19 -35 42 -32 l28 3 1 110 c0 129 21 197 82 265 41 46 65 52 120 29 31
-13 35 -12 48 5 21 29 17 42 -16 66 -45 32 -97 35 -147 9z"/>
<path d="M1469 1096 c-57 -20 -105 -53 -149 -103 -48 -54 -110 -175 -110 -212
0 -54 52 -71 72 -23 55 136 124 225 199 256 69 29 114 -23 128 -147 10 -88 14
-97 47 -97 34 0 42 27 32 113 -11 102 -49 175 -108 205 -51 25 -61 26 -111 8z"/>
<path d="M426 1024 c-20 -19 -20 -24 0 -52 17 -24 43 -29 62 -10 17 17 15 42
-6 61 -23 21 -36 21 -56 1z"/>
<path d="M556 1014 c-9 -8 -16 -22 -16 -29 0 -35 53 -58 78 -33 17 17 15 35
-8 58 -24 24 -34 25 -54 4z"/>
<path d="M480 885 c-28 -33 12 -85 54 -69 23 9 21 61 -3 74 -26 14 -36 13 -51
-5z"/>
<path d="M605 807 c-13 -10 -16 -21 -11 -40 8 -35 53 -48 73 -22 17 25 17 31
-7 55 -24 24 -30 24 -55 7z"/>
<path d="M178 792 c-25 -5 -32 -44 -19 -98 42 -167 227 -373 453 -505 l68 -40
0 -52 c0 -31 6 -62 16 -75 l15 -22 394 0 394 0 15 22 c10 13 16 44 16 75 l0
52 68 40 c226 132 411 338 453 505 13 54 6 93 -19 98 -9 3 -34 -4 -55 -14 -60
-30 -175 -56 -330 -75 -205 -26 -879 -26 -1084 0 -155 19 -270 45 -330 75 -21
10 -46 17 -55 14z m197 -142 c185 -37 318 -45 735 -45 406 0 514 6 709 42 47
8 96 19 109 24 14 5 27 7 30 5 5 -6 -43 -92 -66 -118 -21 -24 -39 -23 -74 7
-35 29 -41 30 -62 9 -24 -24 -19 -44 21 -82 l38 -35 -54 -48 c-46 -41 -56 -46
-72 -36 -26 16 -54 -3 -54 -37 -1 -29 -23 -48 -107 -92 l-47 -24 -378 0 -378
0 -83 47 c-56 31 -81 51 -77 61 3 7 0 23 -6 34 -8 15 -18 19 -41 16 -24 -4
-38 3 -76 37 l-46 42 37 35 c41 39 47 72 18 88 -26 14 -26 14 -57 -15 -46 -43
-66 -33 -118 56 -31 54 -32 64 -8 54 9 -4 58 -15 107 -25z m1065 -540 l0 -30
-335 0 -335 0 0 30 0 30 335 0 335 0 0 -30z"/>
<path d="M517 543 c-17 -17 -4 -53 28 -82 30 -26 44 -31 85 -31 52 0 103 31
115 71 14 45 -46 67 -80 29 -10 -11 -28 -20 -41 -20 -13 0 -28 9 -34 20 -10
20 -58 28 -73 13z"/>
<path d="M830 535 c-16 -19 -5 -49 31 -80 24 -19 42 -25 80 -25 42 0 55 5 86
33 30 28 35 38 29 60 -5 22 -12 27 -36 27 -19 0 -33 -7 -40 -20 -6 -11 -21
-20 -34 -20 -13 0 -31 9 -41 20 -21 23 -57 26 -75 5z"/>
<path d="M1144 535 c-25 -64 71 -127 151 -99 47 16 76 50 73 84 -4 33 -46 39
-73 10 -23 -26 -57 -26 -80 0 -21 24 -63 26 -71 5z"/>
<path d="M1457 543 c-27 -27 36 -112 86 -114 66 -3 121 22 137 65 18 49 -38
76 -75 36 -10 -11 -29 -20 -41 -20 -13 0 -29 9 -36 20 -12 19 -57 28 -71 13z"/>
<path d="M659 359 c-9 -17 -7 -26 8 -48 28 -37 81 -63 121 -57 67 10 122 75
92 111 -18 21 -38 19 -72 -10 -16 -14 -34 -25 -39 -25 -6 0 -20 11 -33 25 -28
31 -61 32 -77 4z"/>
<path d="M990 365 c-30 -36 25 -101 92 -111 40 -6 93 20 121 57 15 22 17 31 8
48 -16 28 -49 27 -77 -4 -13 -14 -27 -25 -33 -25 -5 0 -23 11 -39 25 -34 29
-54 31 -72 10z"/>
<path d="M1309 359 c-9 -17 -7 -26 8 -48 28 -37 81 -63 121 -57 67 10 122 75
92 111 -18 21 -38 19 -72 -10 -16 -14 -34 -25 -39 -25 -5 0 -19 11 -31 25 -27
31 -63 32 -79 4z"/>
</g>
</svg>
