<?xml version="1.0" standalone="no"?>
<!DOCTYPE svg PUBLIC "-//W3C//DTD SVG 20010904//EN"
 "http://www.w3.org/TR/2001/REC-SVG-20010904/DTD/svg10.dtd">
<svg version="1.0" xmlns="http://www.w3.org/2000/svg"
 width="225.000000pt" height="225.000000pt" viewBox="0 0 225.000000 225.000000"
 preserveAspectRatio="xMidYMid meet">

<g transform="translate(0.000000,225.000000) scale(0.100000,-0.100000)"
fill="#000000" stroke="none">
<path d="M718 2236 c-58 -21 -87 -44 -116 -91 l-27 -43 -123 -4 -124 -3 -34
-37 -34 -38 -95 0 c-90 0 -96 -1 -127 -29 l-33 -29 -3 -931 c-2 -803 0 -936
12 -966 29 -68 -10 -66 934 -65 474 1 869 5 897 11 80 14 186 72 249 135 69
69 131 190 146 284 13 83 13 282 0 338 -26 113 -90 196 -187 244 -58 28 -78
33 -162 36 -80 3 -102 0 -133 -16 -44 -23 -45 -19 -23 55 20 66 78 144 147
195 59 45 71 59 62 81 -11 29 -36 28 -85 -4 -60 -38 -133 -118 -163 -177 l-23
-45 -30 54 c-17 30 -40 63 -52 73 -21 19 -21 25 -21 357 l0 337 -31 31 c-30
30 -32 31 -130 31 -95 0 -99 1 -115 26 -29 44 -63 54 -183 54 -110 0 -111 0
-125 28 -35 67 -126 123 -200 122 -17 -1 -48 -7 -68 -14z m144 -82 c28 -14 56
-50 75 -96 l12 -26 136 -4 c107 -2 138 -6 145 -18 14 -22 12 -184 -2 -198 -9
-9 -119 -12 -434 -12 -232 0 -429 3 -438 6 -13 5 -16 24 -16 105 0 87 2 99 19
109 11 5 75 10 144 10 l123 0 22 48 c42 90 126 120 214 76z m-602 -244 c0 -39
-1 -40 -34 -40 -25 0 -40 -7 -55 -26 -21 -27 -21 -32 -21 -836 l0 -809 25 -24
24 -25 538 0 538 -1 45 -39 45 -40 -627 0 c-615 0 -628 0 -648 20 -20 20 -20
33 -20 921 0 601 3 907 10 920 9 16 22 19 95 19 l85 0 0 -40z m1228 28 c9 -9
12 -92 12 -311 l0 -299 -32 7 c-18 4 -36 9 -40 12 -5 2 -8 114 -8 247 0 271 2
264 -68 275 -34 6 -37 9 -40 44 l-3 37 83 0 c52 0 89 -5 96 -12z m-1194 -173
l33 -35 458 0 457 0 35 35 c19 19 44 35 54 35 18 0 19 -11 19 -224 l0 -224
-37 -7 c-60 -11 -73 -29 -73 -100 0 -77 20 -145 56 -192 26 -35 27 -37 9 -47
-46 -26 -105 -91 -136 -148 l-34 -63 -3 -167 c-4 -187 4 -244 48 -337 17 -35
30 -65 30 -67 0 -2 -222 -3 -492 -2 l-493 3 -3 788 -2 787 21 0 c11 0 35 -16
53 -35z m1196 -519 c54 -26 96 -83 114 -152 l13 -51 -101 5 c-116 5 -150 19
-177 72 -10 19 -21 61 -25 92 l-7 57 34 4 c52 6 100 -3 149 -27z m95 -280 c40
-17 65 -60 65 -114 0 -43 18 -66 47 -60 13 2 20 16 24 54 7 57 18 81 49 109
18 17 36 20 104 20 102 0 147 -16 207 -72 65 -61 90 -123 96 -242 11 -204 -28
-347 -126 -453 -74 -80 -153 -118 -277 -132 -193 -21 -338 18 -437 118 -105
105 -137 201 -137 408 0 155 15 213 71 281 66 80 221 121 314 83z"/>
<path d="M420 1929 c-17 -32 4 -51 54 -47 35 3 42 7 44 27 4 29 -12 41 -55 41
-22 0 -36 -6 -43 -21z"/>
<path d="M611 1936 c-7 -8 -10 -24 -6 -36 6 -19 13 -20 276 -20 240 0 270 2
276 16 3 9 2 24 -4 33 -9 14 -44 16 -270 19 -219 2 -262 0 -272 -12z"/>
<path d="M321 1584 c-17 -22 -21 -41 -21 -106 0 -70 3 -82 25 -103 21 -22 33
-25 103 -25 65 0 84 4 106 21 25 19 26 25 26 108 0 79 -2 90 -23 109 -20 19
-35 22 -109 22 -82 0 -88 -2 -107 -26z m169 -104 l0 -61 -57 3 -58 3 -3 44
c-5 66 0 71 63 71 l55 0 0 -60z"/>
<path d="M650 1485 c-6 -8 -10 -22 -8 -32 3 -17 23 -18 289 -21 240 -2 288 0
298 12 9 11 10 20 1 35 -10 20 -18 21 -289 21 -231 0 -281 -2 -291 -15z"/>
<path d="M321 1244 c-17 -22 -21 -41 -21 -105 0 -114 26 -135 157 -127 91 6
103 22 103 134 0 115 -9 124 -129 124 -85 0 -91 -1 -110 -26z m169 -99 l0 -55
-60 0 -60 0 0 55 0 55 60 0 60 0 0 -55z"/>
<path d="M644 1146 c-3 -8 -4 -23 -2 -33 3 -17 20 -18 238 -18 l235 0 0 30 0
30 -233 3 c-196 2 -233 0 -238 -12z"/>
<path d="M345 929 c-38 -22 -45 -41 -45 -120 0 -62 4 -81 21 -103 19 -25 25
-26 110 -26 120 0 129 9 129 124 0 117 -11 130 -117 134 -46 1 -86 -2 -98 -9z
m145 -124 l0 -55 -60 0 -60 0 0 55 0 55 60 0 60 0 0 -55z"/>
<path d="M643 804 c-3 -9 -2 -24 4 -33 9 -14 38 -16 195 -19 199 -3 218 2 203
48 -6 19 -14 20 -201 20 -171 0 -195 -2 -201 -16z"/>
<path d="M325 575 c-22 -22 -25 -32 -25 -105 0 -73 3 -83 25 -105 22 -23 32
-25 108 -25 74 0 86 3 105 23 19 20 22 35 22 109 0 82 -2 88 -26 107 -22 17
-41 21 -106 21 -70 0 -82 -3 -103 -25z m163 -108 l3 -58 -58 3 -58 3 -3 44
c-5 67 0 72 60 69 l53 -3 3 -58z"/>
<path d="M658 479 c-24 -13 -23 -46 1 -59 26 -13 346 -13 372 0 10 6 19 19 19
30 0 11 -9 24 -19 30 -26 13 -350 13 -373 -1z"/>
<path d="M1385 881 c-67 -41 -105 -108 -105 -186 0 -33 5 -47 16 -52 27 -10
48 11 56 55 10 59 35 101 74 124 35 21 43 45 22 66 -16 16 -28 15 -63 -7z"/>
</g>
</svg>
