<?xml version="1.0" standalone="no"?>
<!DOCTYPE svg PUBLIC "-//W3C//DTD SVG 20010904//EN"
 "http://www.w3.org/TR/2001/REC-SVG-20010904/DTD/svg10.dtd">
<svg version="1.0" xmlns="http://www.w3.org/2000/svg"
 width="225.000000pt" height="225.000000pt" viewBox="0 0 225.000000 225.000000"
 preserveAspectRatio="xMidYMid meet">

<g transform="translate(0.000000,225.000000) scale(0.100000,-0.100000)"
fill="#318789" stroke="none">
<path d="M175 2231 c-50 -22 -91 -69 -105 -119 -6 -24 -10 -297 -10 -771 l0
-735 202 -203 202 -203 373 0 372 0 66 -50 c95 -72 119 -82 220 -90 57 -5 108
-15 139 -29 28 -12 68 -24 90 -27 49 -7 160 17 218 47 60 31 141 116 176 185
88 175 87 346 -4 501 -32 55 -124 146 -181 180 -41 24 -51 25 -119 19 -83 -7
-81 -10 -30 62 41 58 146 138 157 120 11 -18 43 2 47 29 5 36 -27 35 -87 -1
l-56 -35 -7 51 c-7 57 -46 113 -96 137 l-31 16 -3 406 -3 406 -27 39 c-15 22
-42 48 -60 59 -32 19 -55 20 -718 22 -648 3 -687 2 -725 -16z m1427 -38 c16
-10 39 -34 51 -53 22 -35 22 -41 23 -480 l1 -445 -96 0 c-79 0 -105 -4 -146
-23 l-50 -23 40 -35 c57 -49 134 -84 199 -91 l56 -6 0 -43 c0 -24 -1 -44 -3
-44 -2 0 -31 11 -65 25 -74 30 -110 31 -194 5 -131 -40 -241 -135 -300 -259
-61 -127 -48 -309 32 -434 16 -26 30 -50 30 -52 0 -3 -155 -5 -345 -5 l-345 0
0 120 c0 225 -56 280 -287 280 l-103 0 0 738 c0 718 1 738 20 770 11 18 34 41
52 52 32 19 52 20 716 20 633 0 686 -1 714 -17z m145 -925 c35 -24 73 -89 73
-125 0 -20 -3 -19 -52 13 -51 34 -76 72 -77 117 -1 23 16 22 56 -5z m-93 -82
c47 -14 132 -63 124 -72 -5 -4 -293 44 -318 53 -19 7 62 31 111 32 20 1 57 -5
83 -13z m-145 -45 c21 -6 22 -8 8 -19 -13 -11 -20 -10 -41 3 -14 10 -26 19
-26 21 0 6 31 3 59 -5z m101 -18 c0 -5 -12 -16 -25 -26 -20 -14 -29 -16 -46
-7 -16 9 -18 14 -8 26 12 14 79 20 79 7z m68 -9 c22 -6 22 -7 -7 -29 -21 -15
-40 -20 -62 -17 l-31 5 28 23 c31 25 38 27 72 18z m95 -25 c-6 -6 -30 -13 -54
-16 -42 -5 -43 -4 -24 11 23 18 96 23 78 5z m3 -41 c-9 -13 -26 -38 -37 -55
-12 -18 -23 -33 -25 -33 -2 0 -4 19 -4 43 0 42 2 44 38 54 20 6 39 11 41 12 2
0 -4 -9 -13 -21z m-148 -117 c77 -34 101 -37 188 -27 60 7 61 7 125 -36 160
-110 241 -309 195 -486 -51 -201 -183 -327 -355 -340 -59 -4 -80 -1 -133 20
-40 16 -95 28 -149 33 -104 8 -164 38 -249 124 -247 251 -152 621 189 733 68
22 99 18 189 -21z m-1248 -364 c60 -40 71 -71 68 -191 l-3 -106 -160 160 -160
160 111 0 c99 0 115 -3 144 -23z"/>
<path d="M350 1820 l0 -150 95 0 c154 0 206 35 213 143 4 57 2 66 -24 96 -41
49 -79 61 -189 61 l-95 0 0 -150z m200 85 c35 -18 50 -43 50 -85 0 -64 -49
-100 -136 -100 l-44 0 0 100 0 100 50 0 c28 0 64 -7 80 -15z"/>
<path d="M720 1820 l0 -150 30 0 30 0 0 150 0 150 -30 0 -30 0 0 -150z"/>
<path d="M840 1820 l0 -150 135 0 135 0 0 25 0 25 -100 0 -100 0 0 35 0 35 95
0 95 0 0 30 0 30 -95 0 -95 0 0 35 0 35 100 0 100 0 0 25 0 25 -135 0 -135 0
0 -150z"/>
<path d="M1160 1945 c0 -24 3 -25 55 -25 l55 0 0 -125 0 -125 30 0 30 0 0 125
0 125 60 0 c57 0 60 1 60 25 l0 25 -145 0 -145 0 0 -25z"/>
<path d="M350 1440 l0 -50 50 0 50 0 0 50 0 50 -50 0 -50 0 0 -50z m80 5 c0
-32 -2 -35 -30 -35 -28 0 -30 3 -30 35 0 32 2 35 30 35 28 0 30 -3 30 -35z"/>
<path d="M778 1423 c127 -2 337 -2 465 0 127 1 23 2 -233 2 -256 0 -360 -1
-232 -2z"/>
<path d="M350 1280 l0 -50 50 0 50 0 0 50 0 50 -50 0 -50 0 0 -50z m80 0 c0
-27 -3 -30 -30 -30 -27 0 -30 3 -30 30 0 27 3 30 30 30 27 0 30 -3 30 -30z"/>
<path d="M550 1270 c0 -7 160 -10 460 -10 300 0 460 3 460 10 0 7 -160 10
-460 10 -300 0 -460 -3 -460 -10z"/>
<path d="M350 1120 l0 -50 50 0 50 0 0 50 0 50 -50 0 -50 0 0 -50z m80 0 c0
-27 -3 -30 -30 -30 -27 0 -30 3 -30 30 0 27 3 30 30 30 27 0 30 -3 30 -30z"/>
<path d="M742 1113 c108 -2 288 -2 400 0 112 1 23 2 -197 2 -220 0 -311 -1
-203 -2z"/>
<path d="M354 1011 c-2 -2 -4 -26 -4 -53 l0 -48 51 0 50 0 -3 51 -3 52 -43 1
c-24 1 -46 -1 -48 -3z m76 -46 c0 -32 -2 -35 -30 -35 -28 0 -30 3 -30 35 0 32
2 35 30 35 28 0 30 -3 30 -35z"/>
<path d="M540 960 c0 -6 92 -10 255 -10 163 0 255 4 255 10 0 6 -92 10 -255
10 -163 0 -255 -4 -255 -10z"/>
<path d="M350 800 l0 -50 50 0 50 0 0 50 0 50 -50 0 -50 0 0 -50z m80 5 c0
-32 -2 -35 -30 -35 -28 0 -30 3 -30 35 0 32 2 35 30 35 28 0 30 -3 30 -35z"/>
<path d="M662 803 c70 -2 187 -2 260 0 73 1 16 3 -127 3 -143 0 -203 -2 -133
-3z"/>
<path d="M1445 892 c-116 -40 -197 -110 -242 -209 -66 -144 -27 -310 101 -431
71 -67 135 -98 221 -106 39 -3 94 -15 123 -26 212 -81 436 85 459 341 12 127
-67 277 -188 358 l-64 43 -71 -7 c-66 -6 -78 -4 -144 24 -82 35 -123 38 -195
13z m165 -17 c67 -34 119 -45 170 -35 40 8 59 6 86 -5 53 -22 152 -122 188
-190 29 -56 31 -67 31 -160 0 -91 -3 -106 -32 -167 -55 -117 -153 -190 -273
-203 -44 -5 -70 -1 -129 19 -42 15 -97 26 -125 26 -109 0 -239 97 -303 227
-33 67 -37 82 -37 153 0 68 5 87 33 144 37 75 97 133 177 171 95 45 154 50
214 20z"/>
<path d="M1562 575 c-7 -14 -12 -37 -12 -51 0 -28 26 -84 39 -84 11 0 31 47
31 73 0 19 -34 87 -43 87 -2 0 -9 -11 -15 -25z m36 -20 c15 -32 15 -65 2 -85
-23 -34 -52 47 -34 94 9 23 19 20 32 -9z"/>
<path d="M1692 554 c-40 -28 -67 -104 -42 -119 27 -17 80 48 80 99 0 33 -12
39 -38 20z m28 -28 c0 -24 -44 -86 -61 -86 -24 0 6 92 33 103 24 10 28 7 28
-17z"/>
</g>
</svg>
