<?xml version="1.0" standalone="no"?>
<!DOCTYPE svg PUBLIC "-//W3C//DTD SVG 20010904//EN"
 "http://www.w3.org/TR/2001/REC-SVG-20010904/DTD/svg10.dtd">
<svg version="1.0" xmlns="http://www.w3.org/2000/svg"
 width="266.000000pt" height="189.000000pt" viewBox="0 0 266.000000 189.000000"
 preserveAspectRatio="xMidYMid meet">

<g transform="translate(0.000000,189.000000) scale(0.100000,-0.100000)"
fill="#000000" stroke="none">
<path d="M545 1863 c-61 -32 -115 -103 -115 -152 0 -18 -5 -19 -49 -14 -60 7
-112 -9 -158 -50 -60 -53 -73 -94 -73 -239 l0 -128 -69 0 c-63 0 -69 -2 -75
-22 -8 -33 -7 -231 2 -245 4 -7 36 -13 72 -15 l65 -3 5 -140 c6 -155 13 -180
74 -232 54 -48 116 -62 185 -42 9 3 17 -7 21 -26 31 -141 209 -221 288 -130
20 24 22 36 22 153 0 70 3 191 7 270 l6 142 27 0 c25 0 26 -3 38 -84 7 -47 20
-104 30 -128 14 -37 18 -94 22 -408 l5 -365 185 -3 c102 -2 231 0 286 3 l101
7 5 299 4 300 35 34 c22 23 71 50 142 79 60 25 123 54 142 66 43 26 75 92 75
153 0 45 1 47 29 47 l28 0 5 -266 6 -266 29 -30 c44 -44 97 -48 168 -14 58 29
88 62 109 123 13 38 13 38 63 35 122 -8 213 79 213 205 0 32 3 95 7 140 l6 82
71 3 71 3 3 115 c4 164 6 160 -77 160 l-68 0 -7 92 c-3 50 -6 112 -6 138 0 58
-41 127 -96 161 -30 18 -54 24 -104 25 -59 1 -65 3 -71 25 -25 96 -103 159
-196 159 -28 0 -58 -7 -71 -16 -49 -34 -52 -55 -52 -329 l0 -255 -34 0 c-32 0
-35 3 -50 48 -9 26 -22 93 -28 150 l-12 102 -33 0 c-53 0 -110 -35 -143 -87
l-30 -47 -71 -1 c-52 -1 -81 3 -107 17 -47 23 -105 23 -156 -1 -26 -12 -69
-21 -118 -23 -68 -3 -80 -7 -106 -31 -18 -18 -39 -27 -60 -27 -48 0 -78 -19
-98 -61 -16 -38 -19 -39 -66 -39 l-48 0 0 255 c0 274 -3 295 -52 329 -29 21
-114 20 -153 -1z m119 -34 c19 -9 27 -22 31 -53 3 -23 5 -328 3 -679 -3 -619
-4 -639 -22 -653 -44 -32 -135 -2 -178 58 l-23 33 1 597 c2 677 -2 642 84 686
50 25 68 27 104 11z m1458 -20 c59 -42 57 -24 60 -670 l3 -594 -23 -36 c-38
-62 -141 -91 -184 -52 -17 15 -18 49 -18 658 0 354 3 657 6 675 4 19 15 35 28
41 30 13 94 2 128 -22z m-1722 -169 c20 -13 26 -160 22 -628 l-2 -373 -32 -13
c-55 -24 -132 7 -168 67 -19 30 -20 53 -20 442 0 392 1 411 20 443 11 18 34
41 52 52 35 21 102 26 128 10z m1982 -7 c16 -10 39 -34 51 -53 22 -35 22 -41
22 -450 l-1 -416 -23 -32 c-43 -61 -139 -85 -183 -46 -20 19 -20 22 -16 501 4
373 8 486 18 497 17 22 94 21 132 -1z m-619 -233 c9 -47 18 -93 22 -102 6 -16
0 -18 -63 -18 -39 0 -74 4 -77 10 -3 5 -9 41 -12 78 -7 83 10 123 65 151 l37
19 7 -26 c3 -15 13 -65 21 -112z m-399 28 c14 -6 33 -22 41 -35 15 -22 17 -22
45 -8 41 21 107 20 119 -3 5 -9 21 -96 36 -192 34 -227 41 -250 65 -250 15 0
20 7 20 25 0 24 3 25 61 25 l61 0 -7 -52 c-10 -77 -26 -95 -123 -140 -48 -21
-113 -51 -144 -65 -64 -29 -101 -63 -117 -106 -7 -16 -14 -149 -18 -303 l-6
-274 -237 0 -237 0 -6 343 c-6 316 -9 348 -28 403 -34 93 -38 285 -9 410 29
129 54 153 121 119 35 -19 49 -13 49 20 0 52 93 74 143 35 34 -27 43 -25 56
10 15 44 66 61 115 38z m-1214 -293 l0 -95 -50 0 -50 0 0 95 0 95 50 0 50 0 0
-95z m676 63 c-4 -18 -10 -61 -13 -95 -6 -61 -7 -63 -34 -63 l-29 0 0 95 0 95
41 0 c41 0 41 0 35 -32z m1084 -63 l0 -95 -115 0 -114 0 -5 33 c-3 17 -10 59
-16 91 -5 33 -10 61 -10 63 0 2 59 3 130 3 l130 0 0 -95z m700 0 l0 -95 -50 0
-50 0 0 95 0 95 50 0 50 0 0 -95z"/>
</g>
</svg>
