<?xml version="1.0" standalone="no"?>
<!DOCTYPE svg PUBLIC "-//W3C//DTD SVG 20010904//EN"
 "http://www.w3.org/TR/2001/REC-SVG-20010904/DTD/svg10.dtd">
<svg version="1.0" xmlns="http://www.w3.org/2000/svg"
 width="226.000000pt" height="223.000000pt" viewBox="0 0 226.000000 223.000000"
 preserveAspectRatio="xMidYMid meet">

<g transform="translate(0.000000,223.000000) scale(0.100000,-0.100000)"
fill="#000000" stroke="none">
<path d="M1050 2219 c-168 -18 -321 -118 -412 -269 l-33 -56 -40 9 c-22 5 -85
7 -140 5 -87 -3 -109 -8 -165 -34 -110 -53 -181 -140 -227 -279 -47 -144 -35
-333 29 -459 50 -98 200 -212 304 -232 l34 -6 1 -102 c1 -127 6 -177 17 -188
4 -4 327 -7 718 -6 l709 3 3 147 3 147 47 15 c116 34 235 122 288 212 151 257
59 626 -185 747 -62 30 -71 32 -181 32 -63 0 -127 -3 -142 -7 -24 -7 -29 -3
-59 50 -17 31 -60 85 -94 118 -123 121 -284 173 -475 153z m203 -84 c32 -8 81
-27 110 -41 68 -35 174 -145 211 -218 15 -31 34 -60 42 -63 7 -2 47 3 90 12
105 24 186 16 269 -24 76 -38 120 -87 167 -187 32 -67 33 -72 33 -204 0 -131
-1 -137 -32 -202 -55 -117 -151 -192 -293 -228 l-65 -16 -5 -145 -5 -144 -647
-3 -648 -2 0 132 c0 73 -4 139 -9 146 -4 7 -36 20 -70 27 -206 49 -321 198
-321 419 0 192 76 343 203 406 83 40 158 47 270 25 70 -14 90 -15 102 -5 8 7
15 18 15 25 0 22 79 134 127 180 110 106 298 151 456 110z"/>
<path d="M418 549 c-16 -9 -18 -29 -18 -193 0 -179 0 -183 28 -237 17 -35 42
-64 70 -84 l42 -29 543 -4 c621 -5 664 -2 713 51 44 47 54 106 54 307 0 140
-3 171 -16 184 -14 14 -91 16 -707 16 -451 -1 -698 -4 -709 -11z m1350 -243
c-3 -169 -4 -175 -27 -200 l-24 -26 -577 0 c-570 0 -578 0 -604 21 -50 39 -56
65 -56 229 l0 150 646 0 645 0 -3 -174z"/>
</g>
</svg>
