<?xml version="1.0" standalone="no"?>
<!DOCTYPE svg PUBLIC "-//W3C//DTD SVG 20010904//EN"
 "http://www.w3.org/TR/2001/REC-SVG-20010904/DTD/svg10.dtd">
<svg version="1.0" xmlns="http://www.w3.org/2000/svg"
 width="128.000000pt" height="128.000000pt" viewBox="0 0 128.000000 128.000000"
 preserveAspectRatio="xMidYMid meet">

<g transform="translate(0.000000,128.000000) scale(0.100000,-0.100000)"
fill="#318789" stroke="none">
<path d="M415 1220 c-160 -29 -325 -87 -372 -132 -48 -45 -48 -55 17 -496 32
-227 66 -425 74 -440 21 -41 79 -89 123 -102 26 -8 159 -10 410 -8 l371 3 43
30 c75 53 82 75 145 516 37 257 54 409 50 432 -13 69 -87 114 -272 167 -179
52 -405 64 -589 30z m485 -55 c88 -19 202 -56 263 -85 80 -38 79 -20 14 -479
-64 -446 -67 -454 -139 -492 -35 -18 -61 -19 -401 -19 -361 0 -364 0 -397 23
-67 45 -66 43 -130 479 -63 431 -64 442 -18 472 58 37 221 90 347 112 101 18
360 12 461 -11z"/>
<path d="M574 1138 c-76 -10 -130 -32 -144 -57 -16 -31 3 -191 26 -208 13 -9
63 -13 185 -13 210 0 207 -2 216 123 5 76 4 90 -12 107 -36 39 -164 62 -271
48z m46 -62 c0 -23 28 -27 44 -5 10 14 23 20 42 17 26 -3 29 -7 32 -46 5 -70
51 -68 52 1 0 16 4 26 10 22 11 -7 13 -61 4 -118 l-7 -38 -46 3 c-45 3 -46 4
-52 42 -6 36 -37 76 -59 76 -23 0 -52 -39 -57 -78 l-6 -42 -47 0 -47 0 -6 73
c-5 73 7 114 18 61 11 -51 15 -56 32 -52 13 3 18 14 19 43 1 56 0 55 39 55 23
0 35 -5 35 -14z m30 -136 c0 -16 -4 -30 -10 -30 -11 0 -14 43 -3 53 11 12 13
8 13 -23z"/>
<path d="M303 808 c-17 -13 -39 -35 -47 -49 -14 -24 -14 -28 0 -39 12 -11 21
-7 53 24 31 31 44 37 71 34 67 -6 95 -93 66 -204 -20 -77 -20 -148 -1 -239 8
-38 15 -79 15 -91 0 -32 -33 -56 -72 -52 -28 3 -37 10 -60 53 -39 72 -68 172
-76 262 -6 69 -9 78 -27 78 -16 0 -21 -8 -23 -44 -8 -105 73 -345 129 -384 37
-26 102 -22 138 9 40 33 47 74 27 169 -20 96 -20 166 -1 229 28 93 14 179 -40
233 -27 27 -41 33 -77 33 -29 0 -54 -7 -75 -22z"/>
<path d="M848 814 c-65 -35 -85 -139 -54 -274 16 -66 14 -105 -10 -227 -16
-81 -10 -109 32 -148 35 -33 100 -34 138 -4 95 75 159 379 111 524 -41 121
-133 175 -217 129z m126 -68 c42 -44 59 -103 58 -203 -1 -119 -48 -276 -100
-335 -8 -10 -26 -18 -39 -18 -57 0 -81 39 -62 101 24 80 27 187 8 282 -14 70
-16 101 -8 129 21 82 89 102 143 44z"/>
<path d="M214 665 c-4 -9 -2 -21 4 -27 15 -15 44 -1 40 19 -4 23 -36 29 -44 8z"/>
</g>
</svg>
