<?xml version="1.0" standalone="no"?>
<!DOCTYPE svg PUBLIC "-//W3C//DTD SVG 20010904//EN"
 "http://www.w3.org/TR/2001/REC-SVG-20010904/DTD/svg10.dtd">
<svg version="1.0" xmlns="http://www.w3.org/2000/svg"
 width="225.000000pt" height="225.000000pt" viewBox="0 0 225.000000 225.000000"
 preserveAspectRatio="xMidYMid meet">

<g transform="translate(0.000000,225.000000) scale(0.100000,-0.100000)"
fill="#318789" stroke="none">
<path d="M1951 2037 l-216 -214 -65 26 -65 26 -450 3 c-502 3 -540 0 -663 -60
-91 -44 -216 -168 -260 -259 -17 -36 -37 -90 -44 -120 -6 -30 -21 -67 -32 -84
-16 -22 -22 -50 -25 -107 -2 -64 -6 -78 -21 -83 -31 -10 -88 -82 -100 -126
-28 -103 39 -213 146 -240 38 -10 48 -18 66 -52 25 -50 117 -148 177 -189 l43
-30 -221 -222 c-141 -142 -221 -229 -221 -242 0 -34 24 -57 59 -57 29 0 59 26
269 236 l237 235 65 -14 c96 -20 877 -20 985 1 157 30 310 134 391 266 31 50
41 58 74 64 123 21 199 147 156 259 -18 46 -85 116 -111 116 -12 0 -15 15 -15
74 0 62 -4 79 -25 110 -14 20 -30 58 -36 84 -21 88 -76 188 -142 257 l-62 65
197 197 c175 175 198 202 198 230 0 33 -28 63 -59 63 -8 0 -112 -96 -230 -213z
m-337 -295 l30 -13 -159 -159 -160 -160 -507 0 c-423 0 -508 2 -508 14 0 7 16
45 35 84 58 114 179 212 302 241 62 15 932 9 967 -7z m215 -138 c40 -46 101
-154 101 -181 0 -10 -42 -13 -217 -13 l-218 0 129 129 c145 146 136 143 205
65z m-859 -542 c0 -5 -13 -21 -30 -37 l-29 -28 -78 28 c-120 42 -119 44 15 45
67 0 122 -4 122 -8z m538 3 c-3 -3 -93 -36 -199 -74 -191 -67 -194 -67 -232
-53 l-38 15 58 59 57 58 180 0 c99 0 177 -2 174 -5z m-947 -75 l194 -69 -297
-1 c-296 0 -297 0 -312 22 -22 31 -20 74 4 98 17 17 33 20 119 20 97 0 102 -1
292 -70z m1548 44 c27 -34 26 -57 -1 -89 l-23 -26 -297 3 -297 3 187 66 c186
67 187 67 299 68 109 1 112 0 132 -25z m-1490 -330 l-86 -86 -33 17 c-37 19
-136 109 -151 137 -9 17 1 18 173 18 l183 0 -86 -86z m1272 68 c-18 -34 -118
-120 -169 -146 -103 -52 -141 -56 -608 -56 -237 0 -434 3 -438 7 -4 4 40 53
96 110 l103 103 513 0 c488 0 512 -1 503 -18z"/>
<path d="M1092 1703 c-22 -9 -33 -50 -20 -78 24 -53 108 -35 108 24 0 45 -43
72 -88 54z"/>
<path d="M617 1632 c-35 -39 -9 -102 41 -102 28 0 62 34 62 60 0 27 -35 60
-63 60 -13 0 -31 -8 -40 -18z"/>
</g>
</svg>
