<?xml version="1.0" standalone="no"?>
<!DOCTYPE svg PUBLIC "-//W3C//DTD SVG 20010904//EN"
 "http://www.w3.org/TR/2001/REC-SVG-20010904/DTD/svg10.dtd">
<svg version="1.0" xmlns="http://www.w3.org/2000/svg"
 width="219.000000pt" height="230.000000pt" viewBox="0 0 219.000000 230.000000"
 preserveAspectRatio="xMidYMid meet">

<g transform="translate(0.000000,230.000000) scale(0.100000,-0.100000)"
fill="#318789" stroke="none">
<path d="M1187 2258 c-21 -24 -53 -63 -70 -88 -36 -51 -97 -186 -97 -214 0
-12 -18 6 -49 50 -121 173 -279 231 -556 204 -74 -7 -135 -15 -135 -17 0 -11
58 -117 97 -175 53 -81 131 -153 198 -184 110 -51 247 -48 364 6 l64 30 -7
-52 c-3 -29 -6 -79 -6 -111 l0 -58 -37 7 c-21 3 -80 17 -132 30 -267 68 -495
-12 -634 -224 -52 -78 -90 -172 -107 -259 -11 -55 -15 -63 -35 -63 -42 0 -43
-14 -24 -240 10 -118 21 -220 23 -227 4 -8 24 -13 56 -13 l50 0 26 -52 c71
-141 219 -342 335 -454 150 -144 308 -185 476 -122 52 19 55 19 106 2 59 -20
44 -20 644 -17 363 3 424 5 437 18 8 9 13 21 10 28 -3 7 -59 55 -124 107 -66
52 -120 98 -120 102 0 3 54 47 119 97 66 50 123 96 126 102 4 5 1 16 -5 24
-10 12 -45 15 -176 15 l-164 0 37 75 c35 70 39 75 70 75 37 0 29 -24 92 245
53 224 53 235 0 235 -25 0 -29 4 -34 38 -11 72 -55 193 -88 245 -69 106 -191
202 -317 248 -92 34 -283 34 -419 1 -51 -13 -96 -20 -100 -17 -3 4 -5 48 -4
99 3 174 50 304 154 428 32 39 59 74 59 79 0 13 -31 39 -47 39 -9 0 -34 -19
-56 -42z m-357 -658 c153 -36 253 -39 366 -9 112 29 253 36 331 15 205 -52
360 -218 392 -418 l8 -48 -889 0 -888 0 6 28 c51 237 182 397 365 446 85 23
171 19 309 -14z m1190 -527 c-1 -5 -20 -87 -43 -183 -41 -170 -43 -175 -69
-178 -26 -3 -27 -2 -30 55 -3 54 -5 58 -28 58 -23 0 -25 -4 -28 -58 l-3 -58
-62 3 -62 3 -5 85 c-5 77 -7 85 -25 85 -18 0 -20 -8 -25 -85 l-5 -85 -57 -3
-57 -3 -3 58 c-3 54 -5 58 -28 58 -23 0 -25 -4 -28 -58 l-3 -58 -62 3 -62 3
-3 83 c-2 65 -6 84 -19 89 -28 11 -43 -25 -43 -104 l0 -73 -55 0 -55 0 0 48
c0 55 -10 75 -36 70 -16 -3 -20 -14 -22 -61 l-3 -57 -64 0 -65 0 0 85 c0 67
-3 87 -15 91 -32 13 -45 -15 -45 -98 l0 -79 -67 3 -68 3 -3 58 c-3 53 -5 57
-27 57 -22 0 -24 -4 -27 -57 l-3 -58 -62 -3 -63 -3 0 84 c0 69 -3 86 -16 91
-32 12 -44 -13 -44 -96 l0 -79 -57 3 -58 3 -3 58 c-3 53 -5 57 -27 57 -22 0
-24 -4 -27 -57 l-3 -58 -62 -3 -63 -3 0 79 c0 59 -4 83 -15 92 -12 10 -18 10
-30 0 -11 -9 -15 -33 -15 -91 l0 -79 -35 0 c-20 0 -37 6 -40 13 -2 6 -9 80
-15 162 -6 83 -13 160 -16 173 l-4 22 980 0 c539 0 980 -3 980 -7z m-1557
-480 c25 -38 81 -103 126 -146 67 -65 85 -78 108 -75 20 2 29 9 31 25 3 17
-19 44 -85 111 -48 48 -96 102 -106 120 l-18 32 650 0 c358 0 651 -2 651 -5 0
-17 -68 -137 -131 -231 -91 -135 -212 -258 -294 -298 -88 -43 -175 -47 -279
-12 l-80 27 -60 -28 c-49 -22 -76 -27 -136 -27 -105 -1 -181 37 -286 142 -111
110 -304 378 -304 421 0 7 31 11 84 11 l84 0 45 -67z m1593 -150 c-4 -5 -49
-40 -99 -78 -64 -49 -92 -77 -92 -91 0 -14 29 -44 90 -94 50 -40 97 -79 105
-86 12 -12 -30 -14 -277 -14 l-291 0 102 103 c56 56 126 139 156 184 l55 82
129 1 c71 0 126 -3 122 -7z"/>
</g>
</svg>
