<?xml version="1.0" standalone="no"?>
<!DOCTYPE svg PUBLIC "-//W3C//DTD SVG 20010904//EN"
 "http://www.w3.org/TR/2001/REC-SVG-20010904/DTD/svg10.dtd">
<svg version="1.0" xmlns="http://www.w3.org/2000/svg"
 width="1000.000000pt" height="800.000000pt" viewBox="0 0 1000.000000 800.000000"
 preserveAspectRatio="xMidYMid meet">

<g transform="translate(0.000000,800.000000) scale(0.100000,-0.100000)"
fill="#318789" stroke="none">
<path d="M3255 7004 c-154 -32 -212 -75 -282 -209 -86 -165 -247 -510 -317
-678 -197 -473 -306 -935 -281 -1187 7 -68 8 -70 35 -70 15 0 41 3 58 6 29 6
31 10 62 123 168 624 399 1399 494 1661 75 206 108 266 155 282 81 28 327 4
510 -49 196 -56 291 -113 291 -174 0 -54 -62 -219 -220 -589 -307 -717 -417
-1038 -450 -1316 -11 -92 -11 -100 7 -112 10 -7 59 -39 108 -71 l91 -58 34 29
c130 110 303 157 456 123 236 -51 1356 -393 2048 -624 247 -83 268 -88 262
-68 -32 109 -43 295 -45 747 -1 184 -6 367 -11 405 -5 39 -9 75 -10 82 0 14
-517 186 -531 177 -5 -3 -15 1 -22 8 -12 12 -652 223 -997 328 -334 103 -450
169 -545 310 -79 117 -89 163 -90 400 0 187 -2 209 -21 251 -47 101 -131 152
-359 218 -183 52 -341 73 -430 55z"/>
<path d="M5795 5969 c-101 -15 -216 -48 -292 -84 -40 -19 -73 -37 -73 -41 0
-10 571 3 670 16 82 11 87 13 133 58 26 25 47 49 47 53 0 11 -413 9 -485 -2z"/>
<path d="M6259 5899 c-36 -37 -84 -76 -105 -88 l-39 -21 402 2 c222 2 403 5
403 8 0 12 -100 81 -153 105 -78 36 -172 53 -317 57 l-125 3 -66 -66z"/>
<path d="M6015 5820 c-38 -4 -202 -8 -364 -9 l-294 -1 -106 -49 c-58 -27 -118
-52 -134 -56 -15 -4 -27 -10 -27 -14 0 -4 116 -45 258 -91 141 -46 280 -91
309 -101 l52 -18 29 47 c78 127 191 228 299 268 45 16 80 36 58 32 -6 0 -41
-4 -80 -8z"/>
<path d="M6009 5748 c-35 -18 -91 -60 -125 -93 -71 -70 -142 -172 -128 -184
12 -12 475 -163 481 -157 13 13 -68 268 -144 454 -7 17 -13 16 -84 -20z"/>
<path d="M6203 5753 c-35 -2 -63 -6 -63 -8 0 -3 7 -23 16 -44 l16 -40 111 -3
c92 -2 112 -6 112 -18 0 -12 -19 -16 -102 -18 -57 -1 -103 -4 -103 -6 0 -1 7
-23 16 -49 l16 -47 161 -2 c136 -3 162 -5 162 -18 0 -13 -25 -15 -156 -18
l-156 -2 16 -60 16 -60 107 0 c89 0 108 -3 108 -15 0 -12 -18 -15 -99 -15 -55
0 -102 -4 -105 -8 -2 -4 0 -29 6 -55 l10 -47 211 -2 c181 -3 212 -5 212 -18 0
-13 -31 -15 -210 -18 l-210 -2 5 -62 5 -62 65 4 c112 7 165 5 168 -5 3 -10
-49 -19 -169 -30 l-67 -6 6 -67 c2 -37 6 -68 7 -70 2 -2 58 2 126 7 201 18
203 18 207 0 2 -13 -18 -18 -136 -27 -76 -7 -152 -12 -170 -12 l-32 0 0 -61 0
-61 43 6 c103 14 225 18 231 8 11 -18 -10 -23 -144 -34 l-130 -11 0 -69 c0
-37 2 -68 3 -68 2 0 190 20 418 45 228 25 440 48 472 52 35 3 57 11 57 18 0
96 -221 914 -278 1033 l-26 52 -346 -2 c-190 -1 -373 -3 -407 -5z m657 -51
c45 -24 74 -80 66 -127 -8 -43 -72 -102 -121 -111 -121 -22 -256 53 -288 163
-17 57 -10 81 9 28 20 -60 71 -104 146 -126 l28 -8 -15 29 c-31 60 -7 137 49
160 35 15 90 11 126 -8z"/>
<path d="M6770 5663 c-44 -17 -70 -45 -70 -76 1 -48 20 -67 69 -67 52 0 104
21 125 51 22 32 20 46 -9 74 -24 25 -76 32 -115 18z"/>
<path d="M7055 5615 c14 -45 134 -465 151 -534 22 -83 19 -81 157 -130 l87
-31 -6 28 c-28 116 -161 388 -250 512 -66 91 -148 183 -139 155z"/>
<path d="M8520 5360 c-49 -21 -91 -62 -142 -138 -147 -220 -277 -326 -449
-367 -84 -19 -259 -19 -357 1 -66 13 -255 73 -316 99 -16 7 -18 5 -14 -16 3
-13 16 -76 28 -139 13 -63 25 -122 28 -130 8 -22 8 -32 17 -562 l8 -486 41
-19 c66 -30 159 -92 194 -131 67 -74 72 -93 72 -334 0 -273 16 -355 82 -414
35 -33 278 -151 380 -185 214 -72 380 -40 532 102 36 33 88 96 116 140 146
228 454 925 514 1164 140 559 156 1019 41 1184 -14 21 -47 50 -73 64 -78 41
-270 114 -377 142 -111 29 -283 42 -325 25z m239 -55 c173 -33 370 -117 447
-191 154 -150 110 -644 -126 -1426 -89 -294 -141 -433 -230 -613 -131 -268
-254 -416 -404 -491 -71 -35 -80 -37 -143 -31 -98 8 -261 65 -486 169 -62 29
-114 53 -116 55 -2 1 22 41 53 89 266 410 545 1260 741 2251 25 123 41 182 52
191 23 16 114 15 212 -3z"/>
<path d="M2441 4830 c-129 -14 -176 -27 -275 -76 -130 -66 -226 -135 -341
-246 -206 -197 -327 -422 -381 -703 -47 -251 50 -826 189 -1126 93 -199 331
-440 537 -544 136 -68 115 -66 656 -63 l489 3 102 52 c377 191 616 480 691
833 22 105 21 365 -2 488 -64 347 -187 624 -385 865 -30 37 -61 67 -68 67 -7
0 -13 7 -13 15 0 18 -130 130 -225 195 -154 104 -348 184 -534 220 -116 23
-324 32 -440 20z m469 -75 c243 -43 464 -160 651 -345 294 -292 519 -798 519
-1168 0 -165 -42 -346 -113 -487 -88 -176 -247 -355 -409 -459 l-28 -18 30 66
c81 177 125 433 117 666 -17 465 -194 899 -473 1159 -252 236 -637 413 -1006
462 -54 7 -98 16 -98 20 0 17 257 90 400 112 68 11 332 6 410 -8z"/>
<path d="M3775 4675 c-57 -18 -143 -62 -190 -98 -22 -17 -42 -32 -43 -33 -2
-1 16 -20 39 -41 24 -21 54 -48 66 -60 l23 -22 268 96 c147 53 270 99 275 103
4 3 -47 21 -113 38 -132 35 -250 41 -325 17z"/>
<path d="M6773 4577 l-463 -51 0 -42 0 -43 125 6 c108 5 125 4 125 -9 0 -19
-58 -28 -172 -28 l-79 0 3 -47 3 -48 175 -6 c96 -4 187 -7 203 -8 18 -1 27 -6
27 -17 0 -15 -19 -16 -203 -9 l-202 7 3 -46 4 -45 126 -3 c164 -4 164 -21 0
-28 -116 -5 -123 -6 -120 -25 2 -11 5 -20 5 -21 1 0 110 -18 242 -38 132 -21
244 -42 250 -47 27 -27 -27 -24 -245 12 -129 21 -236 36 -238 34 -3 -2 -2 -15
2 -28 5 -21 15 -25 121 -41 63 -10 118 -23 121 -28 13 -21 -15 -26 -86 -13
-105 19 -125 17 -55 -7 170 -58 538 -194 670 -248 83 -34 155 -64 160 -66 11
-5 10 783 -1 914 -5 59 -9 72 -22 71 -10 -1 -225 -24 -479 -52z m281 -81 c53
-40 80 -118 60 -170 -7 -19 -40 -21 -47 -3 -2 6 2 25 10 40 19 37 9 81 -24
107 -72 57 -173 -19 -173 -130 0 -30 -4 -41 -12 -37 -133 52 -148 61 -153 81
-6 29 -13 126 -9 126 2 0 15 -5 29 -12 23 -10 25 -17 25 -70 0 -54 2 -59 26
-68 34 -13 31 -14 39 23 11 52 51 113 87 131 43 22 99 15 142 -18z"/>
<path d="M4255 4601 c-6 -4 -131 -52 -280 -106 -148 -54 -272 -99 -273 -101
-2 -1 19 -30 47 -64 223 -268 343 -561 408 -997 l8 -51 195 80 c363 149 1014
410 1135 455 l120 45 160 -5 c162 -5 255 -21 304 -53 40 -27 9 -35 -51 -14
-76 27 -229 43 -341 37 -81 -4 -108 -11 -221 -55 -71 -28 -131 -54 -135 -58
-9 -9 98 -106 182 -165 147 -104 322 -175 486 -199 128 -19 369 -1 404 30 6 6
147 484 147 501 0 4 -8 9 -17 12 -10 3 -110 37 -223 76 -418 145 -1243 407
-1799 572 -255 75 -243 73 -256 60z"/>
<path d="M6577 3850 c-5 -21 14 -30 187 -86 79 -26 109 -45 94 -60 -3 -2 -71
18 -151 45 l-145 49 -11 -43 c-6 -24 -11 -46 -11 -49 0 -3 46 -19 103 -37 108
-33 127 -43 111 -59 -6 -6 -48 3 -117 25 l-108 34 -8 -22 c-27 -74 -27 -74 46
-96 76 -23 789 -238 814 -246 14 -5 17 7 23 74 4 44 4 100 1 125 l-7 44 -86
40 c-151 70 -694 282 -722 282 -4 0 -10 -9 -13 -20z"/>
<path d="M9185 3643 c-39 -104 -161 -385 -221 -512 -36 -74 -61 -138 -56 -143
5 -5 94 85 198 199 104 114 226 248 272 298 l82 90 -121 58 c-67 31 -125 57
-129 57 -4 0 -15 -21 -25 -47z"/>
<path d="M1368 3594 l-26 -14 13 -57 c8 -32 51 -228 96 -435 46 -208 85 -378
88 -378 3 0 12 4 20 9 10 7 6 28 -22 112 -59 176 -105 405 -130 656 l-12 121
-27 -14z"/>
<path d="M1281 3551 c-12 -8 -12 -20 1 -85 8 -42 13 -78 10 -81 -19 -19 -32 2
-43 70 l-12 74 -28 -15 c-16 -8 -29 -17 -29 -20 0 -4 12 -69 26 -145 14 -77
22 -144 19 -150 -12 -19 -32 10 -38 56 -13 94 -40 225 -46 225 -3 0 -14 -7
-23 -14 -17 -12 -17 -19 2 -132 10 -65 17 -120 15 -122 -14 -14 -33 13 -39 55
-4 26 -12 76 -17 110 l-11 61 -33 -20 c-19 -10 -32 -25 -30 -31 9 -26 85 -402
85 -419 0 -10 -7 -18 -15 -18 -8 0 -15 3 -15 8 0 11 -80 396 -86 411 -4 12 -7
12 -21 -2 -15 -15 -15 -25 -1 -117 13 -87 13 -103 1 -107 -8 -3 -16 -4 -18 -1
-2 2 -10 45 -16 96 -7 51 -16 92 -20 92 -4 0 -17 -8 -28 -18 l-22 -17 20 -114
c25 -134 26 -161 8 -161 -9 0 -19 33 -31 103 -23 135 -27 150 -36 140 -4 -4
-4 -35 1 -68 8 -62 -2 -95 -21 -65 -8 13 -15 69 -11 93 2 16 -19 6 -34 -16
-13 -21 -13 -29 1 -77 22 -74 94 -148 193 -198 l76 -39 46 -222 c25 -122 48
-224 51 -227 10 -10 388 238 388 254 -1 39 -187 856 -195 859 -6 1 -16 -1 -24
-6z m38 -406 c59 -30 65 -116 17 -234 -13 -33 -23 -61 -21 -61 20 0 102 36
112 49 12 14 13 11 11 -18 -3 -34 -5 -35 -78 -57 -41 -13 -76 -21 -78 -19 -2
2 9 34 24 72 15 38 29 94 32 128 3 51 0 63 -18 83 -36 38 -89 22 -103 -33 -3
-13 -5 -8 -6 13 -1 41 14 70 42 82 30 12 34 12 66 -5z"/>
<path d="M6475 3489 c-9 -27 -15 -54 -13 -61 2 -6 49 -24 103 -39 103 -30 130
-44 103 -54 -9 -4 -62 7 -118 23 l-101 29 -9 -22 c-5 -13 -12 -38 -15 -57 l-6
-34 141 -34 c154 -37 170 -44 154 -60 -7 -7 -54 1 -153 25 -78 19 -145 35
-150 35 -10 0 -31 -103 -23 -111 4 -4 54 -17 112 -29 118 -25 147 -37 132 -52
-7 -7 -48 -1 -126 16 -63 14 -119 26 -124 26 -15 0 -43 -80 -29 -85 7 -2 84
-23 172 -45 244 -63 265 -70 265 -86 0 -8 -6 -14 -12 -14 -7 1 -111 27 -231
59 l-217 57 -20 -34 c-12 -19 -20 -36 -18 -37 2 -1 46 -15 98 -30 102 -29 123
-41 96 -51 -9 -3 -61 6 -116 22 -97 27 -100 27 -120 9 -11 -10 -17 -22 -13
-26 5 -4 51 -16 103 -28 150 -34 170 -41 170 -56 0 -20 7 -21 -167 21 l-152
36 -32 -22 c-40 -29 -32 -33 96 -50 107 -14 144 -25 127 -42 -6 -6 -59 -2
-152 11 l-143 21 -56 -47 c-71 -61 -206 -181 -389 -348 l-144 -130 90 -6 c65
-4 99 -11 125 -27 30 -17 42 -19 69 -11 56 16 140 11 183 -11 35 -18 47 -19
117 -10 128 16 219 -11 264 -78 l22 -31 178 191 c216 231 285 292 440 383 177
105 251 160 273 203 39 76 143 453 130 467 -2 2 -200 62 -439 135 -239 72
-440 133 -447 135 -7 2 -19 -17 -28 -46z m441 -183 l28 -34 24 19 c15 11 40
19 64 19 70 0 120 -80 102 -163 -10 -47 -33 -87 -49 -87 -23 0 -18 32 10 70
30 41 32 69 4 104 -28 36 -72 35 -110 -3 -16 -16 -29 -37 -29 -45 0 -9 -5 -16
-11 -16 -6 0 -9 7 -5 15 8 21 -13 74 -34 85 -36 19 -69 12 -85 -20 -19 -37
-19 -60 1 -88 9 -13 11 -22 4 -22 -15 0 -50 61 -50 88 0 35 28 88 53 100 37
18 55 13 83 -22z"/>
<path d="M725 3035 c3 -27 19 -212 35 -410 44 -532 29 -464 113 -528 l72 -54
1 246 c0 214 11 407 30 546 l5 40 -62 29 c-60 28 -145 101 -182 156 -17 25
-17 25 -12 -25z"/>
<path d="M4150 3038 c0 -88 -72 -308 -135 -412 -19 -32 -35 -60 -35 -63 0 -2
34 24 76 59 119 100 105 96 169 47 30 -23 58 -39 61 -36 8 7 -13 170 -28 219
-6 20 -28 58 -49 83 -30 37 -39 56 -39 85 0 22 -4 42 -10 45 -6 4 -10 -7 -10
-27z"/>
<path d="M996 2698 c-14 -137 -26 -478 -21 -563 17 -251 72 -527 135 -679 73
-174 159 -266 298 -316 200 -73 541 -127 927 -149 223 -12 1374 -13 1539 -1
168 13 242 33 267 74 47 76 144 435 238 883 28 133 51 254 51 268 l0 26 -42
-34 c-91 -73 -192 -117 -328 -143 -99 -19 -2102 -39 -2305 -24 -238 19 -408
54 -530 110 -106 48 -99 33 -160 334 -31 149 -57 271 -59 273 -2 2 -6 -25 -10
-59z"/>
<path d="M4050 2575 c-63 -52 -119 -95 -125 -96 -5 0 -32 -26 -59 -56 -26 -31
-76 -80 -110 -111 -71 -64 -248 -183 -312 -209 -24 -10 -44 -21 -44 -25 0 -3
70 -4 155 -2 85 2 224 6 308 8 249 7 375 47 530 169 16 13 13 23 -50 142 -36
71 -67 143 -68 161 -2 27 -12 41 -53 74 -28 22 -53 40 -54 39 -2 0 -55 -43
-118 -94z"/>
<path d="M5460 2153 c-16 -6 -202 -174 -198 -178 2 -2 215 -31 475 -65 l472
-62 63 68 c66 71 72 91 40 127 -45 51 -163 71 -269 47 -35 -8 -47 -7 -76 10
-47 28 -112 34 -177 16 -51 -14 -56 -13 -75 4 -11 10 -38 23 -60 29 -42 11
-169 14 -195 4z"/>
</g>
</svg>
